<?xml version="1.0" encoding="UTF-8" standalone="no"?>
<svg height="210.53804" viewBox="0 0 475 210.53804" width="475" xmlns="http://www.w3.org/2000/svg" xmlns:xlink="http://www.w3.org/1999/xlink">
   <clipPath id="a">
      <path d="m0 0h5116.89v2268h-5116.89z"/>
   </clipPath>
   <g clip-path="url(#a)" transform="matrix(.09282982 0 0 -.09282982 0 210.53804)">
      <path d="m5094.35 851.039c-9.66-9.719-21.27-14.551-34.98-14.551-13.69 0-25.31 4.832-34.96 14.551-9.52 9.711-14.25 21.383-14.25 35.191 0 13.661 4.73 25.301 14.39 34.899 9.58 9.762 21.19 14.59 34.82 14.59 13.64 0 25.32-4.828 34.98-14.59 9.58-9.598 14.37-21.238 14.37-34.899 0-13.808-4.79-25.48-14.37-35.191zm5.66 75.731c-11.21 11.21-24.7 16.718-40.64 16.718-15.79 0-29.3-5.508-40.44-16.718-11.12-11.18-16.81-24.68-16.81-40.469 0-15.942 5.54-29.52 16.68-40.77 11.14-11.222 24.71-16.851 40.57-16.851 15.94 0 29.43 5.629 40.64 16.851 11.21 11.278 16.88 24.867 16.88 40.77 0 15.828-5.67 29.328-16.88 40.469" fill="#231f20"/>
      <path d="m5067.94 888.93c-2.36-.91-5.87-1.418-10.59-1.418h-9.99v22.84h9.45c6.14 0 10.66-.801 13.44-2.313 2.83-1.59 4.24-4.629 4.24-9.269 0-4.84-2.22-8.09-6.55-9.84zm16.48-29.942c-.14 1.653-.2 3.242-.2 4.692v4.609c0 3.211-1.15 6.43-3.39 9.77-2.28 3.363-5.93 5.371-10.86 6.16 3.92.633 6.96 1.66 9.12 3.07 4.11 2.641 6.14 6.82 6.14 12.441 0 7.93-3.24 13.25-9.79 15.95-3.57 1.519-9.38 2.281-17.14 2.281h-22.08v-63.02h11.14v24.789h8.71c5.94 0 9.99-.691 12.42-2 3.91-2.378 5.94-7.199 5.94-14.449v-4.98l.19-2.039c.08-.242.08-.492.15-.703.07-.188.13-.418.13-.618h10.47l-.41.789c-.27.532-.47 1.641-.54 3.258" fill="#231f20"/>
      <path d="m499.434 2180.94h91.804c132.383 0 201.649-60.18 201.649-171.57 0-123.4-66.223-182.05-203.196-182.05h-90.257zm123.402-835.12v66.22h-24.102c-78.168 0-99.3 30.04-99.3 114.34v219.72h123.402c224.121 0 332.539 78.13 332.539 260.28 0 180.6-117.328 261.83-359.676 261.83h-386.613v-66.19h25.519c76.758 0 97.754-31.63 97.754-114.37v-561.27c0-82.78-20.996-114.34-97.754-114.34h-25.519v-66.22c69.133 2.94 136.836 2.94 206.105 2.94 69.122 0 138.387 0 207.645-2.94" fill="#231f20"/>
      <path d="m1095.59 1939.32v-338.31c0-179.38 99.97-272.05 291.35-272.05 203.4 0 285.22 89.04 285.22 288.85v321.51c0 63.81 14.45 91.45 66.29 91.45h21.6v53c-46.98-1.25-95.11-2.47-143.24-2.47-49.35 0-98.63 1.22-150.48 2.47v-53h19.31c69.8 0 83.03-24.04 83.03-95.08v-325.03c0-134.84-43.27-197.48-169.77-197.48-128.68 0-170.94 62.64-170.94 199.93v326.21c0 68.57 12.09 91.45 78.31 91.45h20.53v53c-51.92-1.25-103.63-2.47-156.62-2.47-52.99 0-105.92 1.22-160.2 2.47v-53h19.38c52.92 0 66.23-28.92 66.23-91.45" fill="#231f20"/>
      <path d="m2059.85 2012.71h77.03c113.2 0 163.7-40.94 163.7-138.45 0-93.84-59-129.99-180.58-129.99h-60.15zm98.69-666.89v52.92h-20.51c-61.37 0-78.18 24.08-78.18 91.46v190.3h67.51c99.77 0 122.72-28.93 150.4-108.36 13.1-39.72 20.46-120.42 60.08-226.32h198.61v52.92h-12.02c-61.23 0-81.89 36.08-102.2 119.14-28.96 115.69-36.25 181.84-128.88 197.48 86.62 22.85 134.82 86.7 134.82 172.17 0 139.63-93.77 196.22-291.29 196.22h-309.39v-53.03h19.31c61.23 0 79.39-25.26 79.39-91.42v-449.1c0-67.38-16.81-91.46-79.39-91.46h-19.31v-52.92c55.42 2.36 109.57 2.36 164.92 2.36 55.36 0 110.78 0 166.13-2.36" fill="#231f20"/>
      <path d="m2810.99 1416.85v597.08h84.19c203.46 0 299.79-89.04 299.79-288.91 0-210.74-93.96-308.17-293.66-308.17zm527.24 306.95c0 244.36-139.61 359.95-426.11 359.95h-333.48v-53.03h19.24c61.43 0 79.38-25.26 79.38-91.42v-449.1c0-66.13-17.95-91.46-79.38-91.46h-19.24v-52.92h352.72c273.34 0 406.87 122.78 406.87 377.98" fill="#231f20"/>
      <path d="m3452.92 1939.32v-338.31c0-179.38 99.91-272.05 291.35-272.05 203.41 0 285.22 89.04 285.22 288.85v321.51c0 63.81 14.52 91.45 66.29 91.45h21.68v53c-47.06-1.25-95.19-2.47-143.32-2.47-49.35 0-98.63 1.22-150.42 2.47v-53h19.25c69.74 0 83.04-24.04 83.04-95.08v-325.03c0-134.84-43.28-197.48-169.65-197.48-128.81 0-171.06 62.64-171.06 199.93v326.21c0 68.57 12.09 91.45 78.31 91.45h20.53v53c-51.86-1.25-103.56-2.47-156.56-2.47-53.06 0-106.05 1.22-160.19 2.47v-53h19.37c52.92 0 66.16-28.92 66.16-91.45" fill="#231f20"/>
      <path d="m4779.49 1566.05h-60.28c-1.08-132.41-20.32-146.82-133.53-146.82h-169.65v274.5h58.87c87.9 0 109.57-8.46 110.78-98.68h54.14v262.38h-55.35c0-92.7-20.46-98.76-111.94-98.76h-56.5v249.28h174.44c96.33 0 122.86-7.25 122.86-101.17v-19.29h61.37v192.66h-591.09v-49.4h20.53c62.57 0 78.17-25.29 78.17-91.42v-449.1c0-66.16-14.45-91.52-78.17-91.52h-25.33v-52.89h600.68z" fill="#231f20"/>
      <path d="m1910.08 487.879v-386.391c0-15.0974-.87-26.5388-2.61-34.3278-1.45-7.8086-3.61-13.961-6.5-18.4883-2.61-4.5313-6.08-8.3008-10.41-11.3203-4.06-2.7735-9.42-5.1719-16.06-7.1719-6.66-2.0078-14.32-3.8984-23-5.6602v-18.48825h198.3v18.48825c-14.18 2.7618-24.6 5.5391-31.24 8.3008-6.66 3.0313-12.01 7.0391-16.06 12.0781-3.77 5.2813-6.66 12.3204-8.67 21.1211-1.74 8.8125-2.61 20.6289-2.61 35.4685v386.391h55.11c15.91-.02 27.77-1.399 35.58-4.149 8.1-2.781 15.62-7.429 22.57-13.968 6.94-6.543 13.45-16.102 19.52-28.672 6.36-12.59 12.72-29.699 19.1-51.328h42.52v131.316h-469.5v-131.316h42.96c5.49 20.129 11.28 36.718 17.35 49.816 6.36 13.32 13.31 23.512 20.83 30.563 7.51 7.289 15.62 12.07 24.3 14.339 8.97 2.27 20.25 3.399 33.84 3.399z" fill="#231f20"/>
      <path d="m3452.47 456.18c5.78 11.32 10.98 19.621 15.62 24.898 4.91 5.531 9.98 9.813 15.19 12.832 5.56 3.789 13.78 4.649 22.48-.379 5.48-2.519 9.83-6.031 13-10.562 3.48-4.278 5.94-10.449 7.39-18.489 1.43-7.8 2.16-20.378 2.16-37.73v-326.391c0-18.609-1.01-32.4371-3.03-41.5074-1.73-9.0625-5.64-16.1016-11.72-21.1328-6.09-4.7774-18.09-9.1797-36.01-13.1993v-18.48825h401.8l8.25 132.43775h-42.96c-5.79-17.11-10.42-30.18-13.88-39.2385-3.19-8.8008-7.25-17.3516-12.15-25.6485-4.92-8.3125-10.56-15.1015-16.93-20.3828-6.37-5.039-14.03-8.6797-22.99-10.9375-8.7-2.0234-20.11-3.0234-34.28-3.0234h-134.95v217.7107h92.86c13.58-.008 23.71-1.64 30.37-4.898 6.94-3.281 12.87-8.813 17.79-16.602 4.91-7.551 9.4-18.867 13.45-33.969h40.79v144.899h-40.79c-4.35-16.109-8.97-27.93-13.88-35.469-4.65-7.558-10.56-12.949-17.79-16.23-7.25-3.008-17.23-4.52-29.94-4.52h-92.86v197.719h137.12c11.28 0 20.95-.758 29.07-2.277 8.09-1.25 15.04-3.762 20.83-7.543 6.07-3.778 11.57-8.797 16.49-15.079 4.91-6.3 9.68-14.101 14.31-23.402 4.63-9.316 9.12-20.129 13.46-32.449h42.53v113.949h-550.13v-18.476c17.06-2.532 29.21-7.18 36.46-13.973 7.5-6.809 11.27-17.859 11.27-33.199-.02-14.86-6.23-39.75-18.66-74.711l-102.4-287.8987-113.25 428.2577h-72.9l-139.73-427.8866-87.21 298.0896c-4.64 15.34-8.25 29.059-10.85 41.129-2.6 12.07-3.9 22.5-3.9 31.32 0 10.809 3.46 19.239 10.42 25.282 7.21 6.039 19.8 10.566 37.74 13.59v18.476h-342.5v-18.476c17.06-4.051 28.49-8.204 34.28-12.461 5.77-4.282 9.82-10.461 12.15-18.493 2.59-8.046 3.9-23.019 3.9-44.898v-133.57h-241.26v133.57c0 17.352.72 30.18 2.17 38.48 1.74 8.309 4.2 14.45 7.38 18.5 3.47 4.27 7.94 7.782 13.45 10.551 5.78 2.77 15.04 5.528 27.77 8.321v18.476h-182.68v-18.476c13.31-3.293 22.7-6.301 28.21-9.071 5.49-2.519 9.83-6.031 13.01-10.562 3.48-4.278 5.93-10.449 7.38-18.489 1.44-7.8 2.17-20.378 2.17-37.73v-326.391c-.01-18.609-1.01-32.4371-3.04-41.5074-1.73-9.0625-5.64-16.1016-11.71-21.1328-6.09-4.7774-18.09-9.1797-36.02-13.1993v-18.48825h182.68v18.48825c-13.32 3.0313-22.99 6.0313-29.07 9.0625-5.79 3.0196-10.28 6.7891-13.45 11.3164-2.9 4.5313-5.07 10.6719-6.51 18.4922-1.17 7.7891-1.74 20.1094-1.74 36.9684v158.102h241.26v-158.102c0-20.8785-1.31-35.7184-3.9-44.5074-2.33-8.8125-6.66-15.3633-13.02-19.6328-6.37-4.2774-17.51-8.1875-33.41-11.6993v-18.48825h181.81v18.48825c-11.3 2.5196-19.68 4.9102-25.17 7.1719-5.21 2.2578-9.26 4.7774-12.15 7.5469-2.9 2.7617-5.36 6.2812-7.38 10.5625-2.03 4.5195-3.47 10.4297-4.34 17.7383-.85 7.2929-1.29 18.2304-1.29 32.8199v326.391c0 20.621 1.15 35.34 3.46 44.148 2.32 8.782 6.65 15.332 13.03 19.614 6.47 5.879 17.29 9.777 30.51 3.769 5.2-3.019 9.98-7.672 14.32-13.949 4.34-6.051 8.68-14.473 13.02-25.281 4.34-10.821 9.1-24.789 14.32-41.891l126.27-409.76937h70.29l138.85 421.46837 119.76-421.46837h62.05l157.95 407.12937c7.51 19.121 14.03 34.339 19.53 45.66" fill="#231f20"/>
      <path d="m1509.23 266.762c-15.62-3.024-36.02-4.532-61.18-4.532h-49.04v224.129c16.19 1.012 37.32 1.52 63.36 1.52 32.39 0 58.14-4.149 77.23-12.449 19.1-8.309 33.27-20.379 42.53-36.219 9.54-15.871 14.32-35.742 14.32-59.633-.02-22.898-4.06-42.258-12.15-58.109-7.83-15.59-18.38-27.797-31.68-36.598-13.31-8.812-27.77-14.84-43.39-18.109zm198.73-209.7932c-8.11 9.5507-17.79 23.4023-29.07 41.5l-39.05 61.8902c-15.34 24.653-29.37 42.75-42.09 54.332-12.45 11.821-27.49 20.868-45.13 27.161v3.027c43.68 13.582 76.37 32.449 98.07 56.59 21.98 24.16 32.97 53.461 32.97 87.922-.01 45.019-16.78 78.218-50.33 99.621-33.56 21.379-84.18 32.066-151.87 32.066h-214.79v-18.476c13.3-3.293 22.7-6.301 28.2-9.071 5.5-2.519 9.84-6.031 13.02-10.562 3.47-4.278 5.93-10.449 7.38-18.489 1.43-7.8 2.17-20.378 2.17-37.73v-326.391c-.02-18.609-1.02-32.4371-3.04-41.5074-1.73-9.0625-5.64-16.1016-11.72-21.1328-6.08-4.7774-18.09-9.1797-36.01-13.1993v-18.48825h183.11v18.48825c-13.32 3.2696-22.71 6.1602-28.2 8.6797-5.51 2.7617-9.85 6.1524-13.02 10.1914-3.19 4.2696-5.64 10.4375-7.38 18.4883-1.45 8.3008-2.17 21.5117-2.17 39.6091v128.301h47.73c14.17 0 24.74-.758 31.68-2.269 7.23-1.258 13.88-3.77 19.96-7.54 6.36-3.531 13.15-9.82 20.39-18.871 7.52-9.058 17.06-23.14 28.64-42.257l38.19-63.0122c9.55-15.8593 19.22-31.4492 29.07-46.789 9.83-15.3516 20.25-29.6992 31.24-43.01955h120.2v18.48825c-13.9 2-25.03 5.5391-33.41 10.5586-8.4 5.0235-16.64 12.3321-24.74 21.8907" fill="#231f20"/>
      <path d="m4227.89 32.4414c17.07 11.5703 30.38 26.4102 39.93 44.5274 9.54 18.3632 14.31 40.7502 14.31 67.1722-.01 23.629-5.79 44.257-17.36 61.871-11.29 17.847-27.2 33.699-47.72 47.539-20.26 13.84-48.9 28.801-85.91 44.91-30.68 13.07-53.82 24.898-69.44 35.469-15.63 10.558-27.19 22-34.71 34.34-7.24 12.308-10.85 27.41-10.85 45.269 0 16.852 4.34 31.32 13.01 43.391 8.69 12.332 20.41 21.5 35.15 27.55 15.05 6.032 31.96 9.051 50.77 9.051 21.7-.011 39.34-2.519 52.94-7.551 13.59-4.781 25.46-13.339 35.59-25.648 10.12-12.332 18.5-29.562 25.16-51.691h42.96v101.871c-31.54 7.047-57.86 11.566-78.97 13.59-20.84 2-42.24 3.019-64.23 3.019-37.9 0-71.59-5.672-101.09-16.992-29.23-11.32-51.51-27.43-66.83-48.289-15.05-20.641-22.56-45.039-22.56-73.199 0-19.379 4.77-37.25 14.32-53.582 9.82-16.36 24.58-31.579 44.26-45.661 19.66-13.847 46.43-28.046 80.27-42.636 35-15.082 61.03-28.301 78.1-39.614 17.07-11.32 29.36-23.386 36.89-36.226 7.51-12.832 11.28-28.672 11.28-47.531 0-29.4613-9.11-51.8324-27.34-67.1722-17.93-15.3477-43.82-23.0196-77.66-23.0196-24.6 0-44.71 3.0196-60.32 9.0625-15.64 6.2774-28.36 15.8399-38.19 28.668-9.84 12.8398-17.65 30.3083-23.43 52.4613h-43.39v-103.4027c59.3-13.32814 111.65-19.9883 157.08-19.9883 28.05.0117188 53.81 2.51953 77.23 7.55078 23.72 5.26952 43.97 13.57032 60.75 24.89062" fill="#231f20"/>
      <path d="m4310.66 389.762h42.95c5.5 20.129 11.29 36.718 17.36 49.816 6.37 13.32 13.3 23.512 20.83 30.563 7.51 7.289 15.63 12.07 24.3 14.339 8.96 2.27 20.24 3.399 33.85 3.399h54.67v-386.391c0-15.0974-.88-26.5388-2.6-34.3278-1.46-7.8086-3.63-13.961-6.51-18.4883-2.61-4.5313-6.08-8.3008-10.42-11.3203-4.05-2.7735-9.41-5.1719-16.05-7.1719-6.66-2.0078-14.32-3.8984-23-5.6602v-18.48825h198.3v18.48825c-14.19 2.7618-24.6 5.5391-31.24 8.3008-6.66 3.0313-12.01 7.0391-16.05 12.0781-3.77 5.2813-6.66 12.3204-8.69 21.1211-1.72 8.8125-2.59 20.6289-2.59 35.4685v386.391h55.1c15.9-.02 27.77-1.399 35.58-4.149 8.1-2.781 15.61-7.429 22.57-13.968 6.93-6.543 13.45-16.102 19.52-28.672 6.36-12.59 12.72-29.699 19.09-51.328h42.52v131.316h-469.49z" fill="#231f20"/>
      <path d="m1148.52 136.211c-11-33.711-27.49-59.3712-49.47-76.9727-21.99-17.3594-48.74-26.0391-80.27-26.0391-49.764 0-87.651 20.1211-113.686 60.3711-25.754 40.2497-38.621 98.9807-38.621 176.2107 0 33.957 2.742 64.778 8.246 92.438 5.773 27.672 14.75 51.191 26.902 70.562 12.438 19.629 27.906 34.719 46.426 45.278 18.801 10.57 41.226 15.851 67.263 15.851 29.5-.019 55.39-8.18 77.67-24.531 22.26-16.348 39.77-42.629 52.5-78.859 13.02-35.969 19.53-81.379 19.53-136.211-.02-45.028-5.51-84.399-16.49-118.098zm105.87 133.949c-.01 55.078-8.97 101.738-26.9 139.981-17.65 38.488-44.12 67.539-79.4 87.16-35.01 19.871-78.26 29.82-129.75 29.82-48.313 0-90.836-10.57-127.57-31.699-36.457-20.883-64.516-51.453-84.176-91.692-19.676-40.261-29.508-88.421-29.508-144.511 0-45.539 5.492-84.649 16.488-117.36 11.285-32.687 27.039-59.609 47.301-80.7379 20.527-20.8828 44.973-36.3516 73.328-46.4102 28.641-9.81246 60.313-14.7109 95.027-14.7109 49.17.0117188 92.13 10.0586 128.87 30.1797 37.02 20.1211 65.66 50.4297 85.92 90.9413 20.25 40.488 30.37 90.18 30.37 149.039" fill="#231f20"/>
      <path d="m364.797 24.3984c-13.281 3.0235-22.942 6.0313-29.004 9.043-5.777 3.0078-10.258 6.7774-13.422 11.2891-2.894 4.5312-5.058 10.6601-6.492 18.4492-1.168 7.7812-1.734 21.4492-1.734 38.2693v76.801l-.114 93.68c-17.652 17.55-35.984 34.929-54.949 52l-1.644 1.582v-224.063c-.016-18.5701-1.016-33.7498-3.036-42.7888-1.73-9.0391-5.625-16.0586-11.687-21.0821-6.07-4.7695-18.047-9.1562-35.93-13.1797v-18.43746h158.012z" fill="#231f20"/>
      <path d="m560.93 5.80078h60.906c-75.445 162.46922-419.996 569.80822-621.836 548.46922 84.7813-22.329 176.578-90.508 259.082-169.879 143.418-129.032 250.516-276.102 301.848-378.59022" fill="#231f20"/>
      <path d="m4703.78 4.80078v38.60942h10.65v10.9492h-34.14v-10.9492h10.59v-38.60942z" fill="#231f20"/>
      <path d="m4757.87 54.3594l-10.63-26.5-10.03 26.5h-12.7l-8.39-49.55862h12.81l4.12 28.55082h.17l11.33-28.55082h5.11l11.92 28.55082h.1l3.65-28.55082h12.86l-7.51 49.55862z" fill="#231f20"/>
      <path d="m315.266 1058.83h4.73v20.84c-16.949-.37-34.637-.76-52.324-.76-17.281 0-35.442.39-53.469.76v-20.84h4.664c15.727 0 19.309-10.19 19.309-30.61v-111.38c0-55.828 31.859-83.738 96.734-83.738 69.195 0 96.399 29.199 96.399 93.636v101.482c0 20.77 5.468 30.61 19.644 30.61h5.871v20.84c-15.726-.37-31.457-.76-47.929-.76-16.2 0-32.332.39-49.282.76v-20.84h4.727c20.117 0 25.18-8.98 25.18-30.61v-105.04c0-38.2-14.915-56.239-50.629-56.239-36.993 0-49.145 17.688-49.145 55.411v105.868c0 22.7 3.914 30.61 25.52 30.61" fill="#d3a20c"/>
      <path d="m745.848 859.5h-4.727v-20.84c17.352.719 34.156.719 51.035.719 17.016 0 33.891 0 50.836-.719v20.84h-4.726c-20.524 0-25.18 9.398-25.18 31l-.813 144.76 92.352-196.6h66.898v189.54c0 21.67 5.196 30.65 25.25 30.65h4.657v20.81c-17.285-.38-34.16-.77-51.578-.77-16.879 0-33.411.39-50.293.77v-20.81h4.66c20.453 0 25.179-8.98 25.179-30.65l1.282-145.899-92.414 197.359h-97.145v-20.81h4.727c19.98 0 25.453-8.98 25.453-30.65v-137.7c0-21.602-5.473-31-25.453-31" fill="#d3a20c"/>
      <path d="m1285.63 859.469h-4.59v-20.77c18.9.723 37.67.723 56.57.723 18.5 0 37.33 0 56.23-.723v20.77h-5.12c-20.05 0-25.12 9.453-25.12 31v137.751c0 21.63 5.07 30.61 25.12 30.61h5.12v20.84c-18.9-.37-37.73-.76-56.23-.76-18.9 0-37.67.39-56.57.76v-20.84h4.59c20.18 0 25.18-8.98 25.18-30.61v-137.751c0-21.547-5-31-25.18-31" fill="#d3a20c"/>
      <path d="m1784.29 1058.83v20.84c-21.67-.37-41.32-.76-58.06-.76-16.94 0-31.46.39-43.68.76v-20.84c13.37-1.17 18.91-9.44 25.12-26.65l73.11-197.5h56.97l70.82 199.02c5.13 14.94 11.07 22.36 25.18 25.13v20.84c-14.11-.37-29.43-.76-45.64-.76-16.4 0-33.75.39-52.58.76v-20.84c19.17 0 28.35-3.94 28.35-14.13 0-2.76-.48-6.29-1.69-10.27l-50.63-152.899-53.13 153.649c-1.69 4.39-2.43 7.88-2.43 10.69 0 10.95 8.24 12.13 28.29 12.96" fill="#d3a20c"/>
      <path d="m2209.04 859.469h-4.73v-20.77h197.46v75.41h-22.07c-.75-42.058-9.46-47.168-48.74-47.168h-44.09v83.36h15.39c24.31 0 30.19-4.731 31.4-30.68h21.26v87.329h-21.26c-.34-26.712-7.09-31.438-33.08-31.438h-13.71v75.058h48.34c29.16 0 42.12-4.7 42.12-27.54v-10.61h22.35v66.49h-195.37v-20.08h4.73c20.12 0 25.18-8.98 25.18-30.61v-137.751c0-20.758-3.91-31-25.18-31" fill="#d3a20c"/>
      <path d="m2777.75 1050.59h19.97c33.09 0 48.08-11.02 48.08-40.82 0-28.801-15.81-39.09-50.03-39.09h-18.02zm-77.84-191.09h-4.8v-20.84c18.91.719 37.81.719 56.57.719 18.5 0 37.34 0 56.44-.719v20.84h-5.26c-19.98 0-25.11 9.398-25.11 31v54.719h18.83c21.6 0 33.81-6.328 39.35-22.059 7.49-20.84 8.64-51.09 23.22-84.5h72.31v20.84h-2.03c-10.8 0-19.17 3.102-25.11 10.219-7.02 8.191-9.79 25.89-16.06 50.371-6.76 24.672-12.23 36.109-34.57 39.32 27.41 6.61 42.4 25.891 42.4 55.34 0 47.65-32.41 64.91-101.13 64.91h-99.85v-20.81h4.8c19.91 0 25.11-8.98 25.11-30.65v-137.7c0-21.602-5.2-31-25.11-31" fill="#d3a20c"/>
      <path d="m3381.65 1007.69v66.46c-29.49 7.13-57.04 11.08-82.09 11.08-61.83 0-95.72-27.24-95.72-70.48 0-31.43 18.97-49.078 57.11-65.57l45.91-19.68c19.31-8.25 27.61-16.891 27.61-33.871 0-23.559-16.07-36.547-45.5-36.547-36.66 0-55.49 15.738-55.49 46.797 0 1.551.33 3.512.33 5.512h-28.68v-68.039c29.5-6.672 58.59-10.25 86.6-10.25 63.6 0 97.83 26.378 97.83 71.968 0 29.18-16.88 49.95-51.18 63.7l-49.89 20.058c-20.78 8.25-30.23 17.722-30.23 34.662 0 20.74 17.75 35.36 45.96 35.36 32.61 0 47.53-13.37 47.53-43.28 0-2.37 0-5.08-.4-7.88z" fill="#d3a20c"/>
      <path d="m3678.22 859.469h-4.73v-20.77c18.83.723 37.8.723 56.5.723 18.57 0 37.4 0 56.23-.723v20.77h-5.05c-20.06 0-25.19 9.453-25.19 31v137.751c0 21.63 5.13 30.61 25.19 30.61h5.05v20.84c-18.83-.37-37.66-.76-56.23-.76-18.7 0-37.67.39-56.5.76v-20.84h4.73c20.05 0 25.17-8.98 25.17-30.61v-137.751c0-21.547-5.12-31-25.17-31" fill="#d3a20c"/>
      <path d="m4278.96 1006.95v72.72c-42.06 0-67.17-.76-75.48-.76h-66.36c-7.9 0-32.33.76-73.24.76v-72.72h24.84c-.41 3.95-.41 7.05-.41 10.13 0 26.44 8.99 33.49 35.32 33.49h21.19v-160.101c0-21.547-4.93-31-25.18-31h-8.24v-20.77c20.06.723 40.18.723 60.22.723 19.64 0 39.76 0 59.81-.723v20.77h-8.23c-20.12 0-25.26 9.453-25.26 31v160.101h17.29c29.24 0 37.74-6.32 37.74-37.36v-6.26z" fill="#d3a20c"/>
      <path d="m4646.13 1058.83h2.09v20.84c-17.69-.37-35.37-.76-52.33-.76-16.93 0-33.41.39-49.47.76v-20.84c16.06-.83 24.02-9.84 33.34-25.99l55.09-95.539v-49.512c0-20.848-4.32-28.32-26.73-28.32h-5.54v-20.77c19.31.723 38.62.723 57.31.723 19.31 0 38.15 0 56.71-.723v20.77h-5.46c-22.89 0-26.81 7.472-26.81 28.32v48.723l58.6 96.028c10.74 17.31 18.16 26.29 30.78 26.29h1.56v20.84c-15.39-.37-31.06-.76-46.86-.76-16.13 0-32.26.39-49.21.76v-20.84c13.37 0 19.31-3.56 19.31-12.54 0-3.91-1.62-9.53-4.32-14.97l-30.72-60.16-30.58 62.07c-2.84 5.51-4.72 10.29-4.72 14.24 0 7.8 5.54 11.36 17.96 11.36" fill="#d3a20c"/>
      <path d="m210.23 1203.66h4570.47v43.3594h-4570.47z" fill="#d3a20c"/>
      <path d="m769.688 521.191h-155.844v-18.453c13.269-3.269 22.508-6.289 27.703-9.027 5.48-2.52 9.66-5.91 12.555-10.172 3.164-4.269 5.332-10.43 6.496-18.437 1.144-8.043 1.73-20.711 1.73-38.024v-79.058c0-36.649.567-77.809 1.731-123.469.492-19.52 1.015-57.922 1.566-79.5-98.176 147.398-359.895 438.008-536.402 422.469 84.375-23.801 174.972-93.59 256.082-174.391 142.816-133.07 248.14-283.981 296.929-387.48056l36.797.3125.008 421.11706c0 18.313.863 31.481 2.598 39.524 1.73 8.027 4.179 14.039 7.355 18.078 3.465 4 7.793 7.261 12.988 9.781 5.481 2.508 14.719 5.258 27.708 8.277z" fill="#d3a20c"/>
   </g>
</svg>
